<svg width="194" height="194" viewBox="0 0 194 194" fill="none" xmlns="http://www.w3.org/2000/svg">
    <path d="M43.7775 81.5483C40.4188 78.5184 36.8153 74.2904 34.5705 69.7648C32.8725 66.3416 32.2999 63.4393 32.5749 61.1935C32.8131 59.2489 33.7618 57.026 36.8884 54.7185C39.304 52.9357 41.3181 52.6182 43.092 52.8495C45.0881 53.1098 47.4703 54.178 50.0439 56.2867C53.7662 59.3366 56.927 63.7732 58.9196 67.9742C53.5142 71.9114 48.2021 76.7682 43.7775 81.5483Z" fill="white"/>
    <path d="M150.054 62.7328C143.29 58.9329 135.463 56.3528 126.602 54.9862C127.127 50.9093 128.333 46.341 130.436 42.6825C132.048 39.8767 133.927 38.0487 135.989 37.0833C137.938 36.1703 140.871 35.6387 145.447 36.8956C149.084 37.8944 150.722 39.5351 151.631 41.1478C152.68 43.0102 153.248 45.7521 153.046 49.4695C152.81 53.7964 151.586 58.502 150.054 62.7328Z" fill="white"/>
    <path fill-rule="evenodd" clip-rule="evenodd" d="M12.3957 145.956C12.536 146.294 12.6889 146.67 12.8868 147.159L12.9905 147.414C15.6465 153.97 21.5179 168.463 38.0883 178.381C55.3339 188.703 79.52 191.547 113.335 186.708C144.406 182.262 167.252 169.082 180.801 150.241C194.107 131.737 196.968 109.585 191.112 91.1487C188.766 83.7634 185.479 76.6966 181.06 70.2371C182.885 64.5243 184.373 57.9874 184.74 51.2409C185.136 43.9492 184.332 34.4199 179.226 25.3554C173.695 15.5375 164.608 8.91901 153.559 5.88463C142.901 2.95766 131.97 3.28655 122 7.95588C112.366 12.4678 106.108 19.8701 102.211 26.6523C100.028 30.4515 98.3678 34.416 97.1238 38.3225C94.0296 38.5795 90.8778 38.9235 87.6691 39.352C84.8049 39.7345 82.0122 40.2599 79.2931 40.9144C76.5676 37.4728 73.458 34.2341 70.0014 31.4019C64.3432 26.7658 56.5162 22.2223 46.8571 20.9626C36.5325 19.6161 26.2622 22.3308 17.4496 28.8349C7.86071 35.9118 1.71556 45.7949 0.306982 57.2958C-0.990451 67.8893 2.03618 77.2826 5.4186 84.1016C7.82207 88.9471 10.8706 93.4416 14.1786 97.4285C6.56055 116.314 7.69153 134.648 12.3957 145.956ZM90.1746 55.2789C97.4187 54.3115 104.212 53.8295 110.565 53.829C111.252 47.7051 113.043 40.6987 116.514 34.6573C119.271 29.86 123.34 25.2469 129.185 22.5095C135.142 19.7199 142.073 19.287 149.695 21.38C157.042 23.3978 162.402 27.5296 165.62 33.2415C168.697 38.7036 169.384 44.8382 169.084 50.3451C168.64 58.5033 165.946 66.7924 163.224 73.0769C169.189 79.5167 173.42 87.2909 176.188 96.0064C180.483 109.525 178.525 126.39 168.15 140.818C157.695 155.356 139.205 166.789 111.446 170.761C79.0919 175.391 59.3181 172.096 46.71 164.55C34.7675 157.402 30.5934 147.108 28.1511 141.085C27.9594 140.612 27.7783 140.165 27.605 139.749C24.0096 131.105 22.9124 112.78 33.9912 94.3491C28.8062 89.8847 23.5459 83.6971 20.1859 76.9231C17.6444 71.7995 15.8463 65.6522 16.6323 59.2346C17.4552 52.5157 20.9992 46.4613 27.3603 41.7666C32.9757 37.6222 39.1182 36.1073 45.1659 36.896C50.9916 37.6558 56.0961 40.4602 60.214 43.8342C65.5002 48.1655 69.9124 54.0488 72.9107 60.015C78.2492 57.7481 84.0081 56.1024 90.1746 55.2789Z" fill="#FF6D64"/>
    <path d="M116.779 113.532C124.498 114.351 131.417 108.746 132.234 101.015C132.824 95.4306 130.069 90.2639 125.585 87.5166C123.86 86.4603 121.881 85.7617 119.737 85.5344C112.018 84.7162 105.098 90.3204 104.281 98.0519C104.111 99.6682 104.22 101.25 104.571 102.747C105.897 108.414 110.673 112.885 116.779 113.532Z" fill="#FF6D64"/>
    <path d="M69.459 109.963C71.3323 117.508 78.9573 122.103 86.4899 120.227C92.4477 118.743 96.5633 113.654 97.0967 107.859C97.2377 106.327 97.1285 104.745 96.7369 103.168C94.8635 95.6234 87.2386 91.0282 79.706 92.9046C77.6142 93.4256 75.7494 94.391 74.1871 95.6752C70.1236 99.0156 68.1059 104.513 69.459 109.963Z" fill="#FF6D64"/>
    <path fill-rule="evenodd" clip-rule="evenodd" d="M92.2974 71.226C101.955 69.9362 110.404 69.6334 117.758 70.1697C131.638 71.1821 141.425 75.159 148.281 80.9848C154.037 85.8753 158.21 92.4727 160.882 100.884C163.615 109.487 162.56 121.064 155.117 131.415C147.753 141.655 133.616 151.338 109.174 154.835C78.2832 159.255 62.9209 155.511 54.9492 150.74C47.7298 146.419 45.3636 140.675 42.9216 134.746L42.9188 134.74C42.7572 134.347 42.5954 133.954 42.4317 133.561C40.6476 129.272 38.8583 113.439 51.3878 97.3622C56.6562 90.6024 65.2512 82.5264 72.68 78.1229C78.5525 74.642 85.0844 72.1893 92.2974 71.226ZM79.706 92.9046C87.2386 91.0282 94.8635 95.6234 96.7369 103.168C97.1285 104.745 97.2377 106.327 97.0967 107.859C96.7063 128.043 80.3718 145.582 67.0151 138.071C53.6585 130.561 62.16 105.564 74.1871 95.6752C75.7494 94.391 77.6142 93.4256 79.706 92.9046ZM104.281 98.0519C105.098 90.3204 112.018 84.7162 119.737 85.5344C121.881 85.7617 123.86 86.4603 125.585 87.5166C138.858 95.6504 150.719 119.234 138.524 128.517C126.328 137.801 107.736 122.685 104.571 102.747C104.22 101.25 104.111 99.6682 104.281 98.0519Z" fill="white"/>
    <path fill-rule="evenodd" clip-rule="evenodd" d="M110.565 53.829C104.212 53.8295 97.4187 54.3115 90.1746 55.2789C84.0081 56.1024 78.2492 57.7481 72.9107 60.015C69.9124 54.0488 65.5002 48.1655 60.214 43.8342C56.0961 40.4602 50.9916 37.6558 45.1659 36.896C39.1182 36.1073 32.9757 37.6222 27.3603 41.7666C20.9992 46.4613 17.4552 52.5157 16.6323 59.2346C15.8463 65.6522 17.6444 71.7995 20.1859 76.9231C23.5459 83.6971 28.8062 89.8847 33.9912 94.3491C22.9124 112.78 24.0096 131.105 27.605 139.749C27.7783 140.165 27.9594 140.612 28.1511 141.085C30.5934 147.108 34.7675 157.402 46.71 164.55C59.3181 172.096 79.0919 175.391 111.446 170.761C139.205 166.789 157.695 155.356 168.15 140.818C178.525 126.39 180.483 109.525 176.188 96.0064C173.42 87.2909 169.189 79.5167 163.224 73.0769C165.946 66.7924 168.64 58.5033 169.084 50.3451C169.384 44.8382 168.697 38.7036 165.62 33.2415C162.402 27.5296 157.042 23.3978 149.695 21.38C142.073 19.287 135.142 19.7199 129.185 22.5095C123.34 25.2469 119.271 29.86 116.514 34.6573C113.043 40.6987 111.252 47.7051 110.565 53.829ZM126.602 54.9862C135.463 56.3528 143.29 58.9329 150.054 62.7328C151.586 58.502 152.81 53.7964 153.046 49.4695C153.248 45.7521 152.68 43.0102 151.631 41.1478C150.722 39.5351 149.084 37.8944 145.447 36.8956C140.871 35.6387 137.938 36.1703 135.989 37.0833C133.927 38.0487 132.048 39.8767 130.436 42.6825C128.333 46.341 127.127 50.9093 126.602 54.9862ZM34.5705 69.7648C36.8153 74.2904 40.4188 78.5184 43.7775 81.5483C48.2021 76.7682 53.5142 71.9114 58.9196 67.9742C56.927 63.7732 53.7662 59.3366 50.0439 56.2867C47.4703 54.178 45.0881 53.1098 43.092 52.8495C41.3181 52.6182 39.304 52.9357 36.8884 54.7185C33.7618 57.026 32.8131 59.2489 32.5749 61.1935C32.2999 63.4393 32.8725 66.3416 34.5705 69.7648ZM117.758 70.1697C110.404 69.6334 101.955 69.9362 92.2974 71.226C85.0844 72.1893 78.5525 74.642 72.68 78.1229C65.2512 82.5264 56.6562 90.6024 51.3878 97.3622C38.8583 113.439 40.6476 129.272 42.4317 133.561C42.5954 133.954 42.7572 134.347 42.9188 134.74L42.9216 134.746C45.3636 140.675 47.7298 146.419 54.9492 150.74C62.9209 155.511 78.2832 159.255 109.174 154.835C133.616 151.338 147.753 141.655 155.117 131.415C162.56 121.064 163.615 109.487 160.882 100.884C158.21 92.4727 154.037 85.8753 148.281 80.9848C141.425 75.159 131.638 71.1821 117.758 70.1697Z" fill="#1C1919"/>
    <path d="M86.4899 120.227C78.9573 122.103 71.3323 117.508 69.459 109.963C68.1059 104.513 70.1236 99.0156 74.1871 95.6752C62.16 105.564 53.6585 130.561 67.0151 138.071C80.3718 145.582 96.7063 128.043 97.0967 107.859C96.5633 113.654 92.4477 118.743 86.4899 120.227Z" fill="#1C1919"/>
    <path d="M132.234 101.015C131.417 108.746 124.498 114.351 116.779 113.532C110.673 112.885 105.897 108.414 104.571 102.747C107.736 122.685 126.328 137.801 138.524 128.517C150.719 119.234 138.858 95.6504 125.585 87.5166C130.069 90.2639 132.824 95.4306 132.234 101.015Z" fill="#1C1919"/>
</svg>
