<svg width="194" height="194" viewBox="0 0 194 194" fill="none" xmlns="http://www.w3.org/2000/svg">
<rect width="194" height="194" rx="64" fill="#1C1919"/>
<path d="M63.7257 90.0498C61.7205 88.2361 59.5692 85.7053 58.229 82.9963C57.2152 80.9471 56.8734 79.2098 57.0376 77.8655C57.1798 76.7015 57.7462 75.3709 59.6128 73.9896C61.0549 72.9224 62.2574 72.7324 63.3164 72.8708C64.5081 73.0267 65.9303 73.666 67.4668 74.9283C69.689 76.754 71.5761 79.4097 72.7657 81.9244C69.5386 84.2812 66.3672 87.1885 63.7257 90.0498Z" fill="white"/>
<path d="M127.174 78.7869C123.136 76.5124 118.463 74.9679 113.173 74.1498C113.487 71.7094 114.207 68.9749 115.462 66.7849C116.424 65.1053 117.546 64.0111 118.777 63.4333C119.941 62.8867 121.691 62.5685 124.424 63.3209C126.595 63.9188 127.573 64.9009 128.115 65.8662C128.742 66.9811 129.081 68.6223 128.96 70.8476C128.819 73.4376 128.089 76.2544 127.174 78.7869Z" fill="white"/>
<path fill-rule="evenodd" clip-rule="evenodd" d="M44.9904 128.604C45.0741 128.806 45.1654 129.032 45.2836 129.324L45.3454 129.477C46.9311 133.401 50.4364 142.077 60.3291 148.013C70.625 154.192 85.0644 155.894 105.252 152.998C123.802 150.337 137.441 142.447 145.53 131.169C153.474 120.092 155.182 106.832 151.686 95.7966C150.285 91.3757 148.323 87.1456 145.685 83.279C146.775 79.8593 147.663 75.9464 147.882 71.9079C148.119 67.5432 147.639 61.839 144.59 56.413C141.288 50.536 135.863 46.5742 129.267 44.7578C122.904 43.0057 116.378 43.2026 110.425 45.9977C104.674 48.6985 100.938 53.1295 98.611 57.1892C97.3076 59.4635 96.3168 61.8366 95.5741 64.175C93.7268 64.3288 91.8451 64.5348 89.9295 64.7913C88.2195 65.0202 86.5523 65.3348 84.9289 65.7265C83.3018 63.6664 81.4453 61.7277 79.3816 60.0324C76.0037 57.2572 71.3308 54.5375 65.5642 53.7834C59.4003 52.9774 53.2688 54.6025 48.0076 58.4957C42.2829 62.732 38.6142 68.6479 37.7732 75.5324C36.9987 81.8736 38.8056 87.4964 40.8249 91.5782C42.2598 94.4787 44.0799 97.1691 46.0548 99.5556C41.5067 110.86 42.1819 121.835 44.9904 128.604ZM91.4253 74.3251C95.7501 73.746 99.8056 73.4574 103.599 73.4572C104.009 69.7914 105.078 65.5974 107.15 61.981C108.796 59.1094 111.226 56.348 114.715 54.7094C118.271 53.0395 122.409 52.7804 126.96 54.0333C131.346 55.2411 134.546 57.7144 136.467 61.1336C138.304 64.4031 138.714 68.0753 138.535 71.3717C138.27 76.2552 136.662 81.217 135.037 84.9789C138.598 88.8337 141.124 93.4873 142.776 98.7044C145.34 106.797 144.172 116.892 137.978 125.528C131.736 134.231 120.697 141.075 104.124 143.452C84.8088 146.224 73.0036 144.252 65.4764 139.734C58.3466 135.456 55.8546 129.293 54.3965 125.688C54.2821 125.405 54.174 125.138 54.0705 124.888C51.924 119.714 51.269 108.745 57.8831 97.7123C54.7876 95.04 51.6472 91.3361 49.6412 87.2812C48.1239 84.2142 47.0504 80.5345 47.5196 76.6929C48.0109 72.671 50.1268 69.0469 53.9244 66.2366C57.2769 63.7558 60.944 62.849 64.5546 63.3211C68.0326 63.7759 71.08 65.4546 73.5384 67.4743C76.6944 70.067 79.3285 73.5887 81.1186 77.1601C84.3057 75.8031 87.7438 74.818 91.4253 74.3251Z" fill="#FF6D64"/>
<path d="M107.308 109.195C111.917 109.685 116.048 106.331 116.535 101.703C116.888 98.3597 115.243 95.2669 112.565 93.6224C111.536 92.9901 110.354 92.5719 109.074 92.4359C104.466 91.9461 100.335 95.3008 99.8473 99.9288C99.7453 100.896 99.8107 101.843 100.02 102.739C100.812 106.132 103.663 108.808 107.308 109.195Z" fill="#FF6D64"/>
<path d="M79.0578 107.059C80.1762 111.575 84.7284 114.326 89.2255 113.203C92.7824 112.314 95.2394 109.268 95.5579 105.799C95.6421 104.882 95.5769 103.936 95.343 102.991C94.2247 98.4751 89.6724 95.7245 85.1754 96.8476C83.9266 97.1595 82.8133 97.7374 81.8806 98.5062C79.4546 100.506 78.25 103.797 79.0578 107.059Z" fill="#FF6D64"/>
<path fill-rule="evenodd" clip-rule="evenodd" d="M92.6926 83.8709C98.4586 83.0988 103.503 82.9176 107.893 83.2386C116.18 83.8446 122.023 86.2252 126.116 89.7125C129.552 92.64 132.043 96.5891 133.639 101.624C135.27 106.774 134.64 113.704 130.197 119.9C125.8 126.029 117.36 131.825 102.768 133.919C84.326 136.565 75.1545 134.324 70.3953 131.468C66.0852 128.881 64.6726 125.443 63.2147 121.894L63.213 121.89C63.1166 121.655 63.0199 121.42 62.9222 121.184C61.8571 118.617 60.7888 109.139 68.2691 99.516C71.4144 95.4696 76.5457 90.6353 80.9808 87.9994C84.4868 85.9157 88.3864 84.4475 92.6926 83.8709ZM85.1754 96.8476C89.6724 95.7245 94.2247 98.4751 95.343 102.991C95.5769 103.936 95.6421 104.882 95.5579 105.799C95.3248 117.881 85.5729 128.38 77.5988 123.884C69.6247 119.389 74.7003 104.426 81.8806 98.5062C82.8133 97.7374 83.9266 97.1595 85.1754 96.8476ZM99.8473 99.9288C100.335 95.3008 104.466 91.9461 109.074 92.4359C110.354 92.5719 111.536 92.9901 112.565 93.6224C120.49 98.4913 127.571 112.608 120.29 118.165C113.009 123.722 101.909 114.674 100.02 102.739C99.8107 101.843 99.7453 100.896 99.8473 99.9288Z" fill="white"/>
</svg>
